<mxfile host="app.diagrams.net" modified="2021-03-23T15:26:38.917Z" agent="5.0 (Macintosh; Intel Mac OS X 11_2_3) AppleWebKit/537.36 (KHTML, like Gecko) Chrome/89.0.4389.90 Safari/537.36" etag="e1O8oq00T4y0jWKf0EHU" version="14.4.9" type="github">
  <diagram id="Ub9wG58I_EDubNPOHQyv" name="Page-1">
    <mxGraphModel dx="2131" dy="854" grid="1" gridSize="10" guides="1" tooltips="1" connect="1" arrows="1" fold="1" page="1" pageScale="1" pageWidth="850" pageHeight="1100" math="0" shadow="0">
      <root>
        <mxCell id="0" />
        <mxCell id="1" parent="0" />
        <mxCell id="TrRocwraU-rzcqvqFi1y-1" value="" style="ellipse;whiteSpace=wrap;html=1;aspect=fixed;strokeColor=#363636;shadow=0;fillColor=#080808;" vertex="1" parent="1">
          <mxGeometry x="320" y="50" width="30" height="30" as="geometry" />
        </mxCell>
        <mxCell id="TrRocwraU-rzcqvqFi1y-2" value="&lt;font style=&quot;font-size: 14px&quot;&gt;Click Review&lt;/font&gt;" style="rounded=1;whiteSpace=wrap;html=1;" vertex="1" parent="1">
          <mxGeometry x="282.5" y="110" width="105" height="40" as="geometry" />
        </mxCell>
        <mxCell id="TrRocwraU-rzcqvqFi1y-4" value="" style="endArrow=classic;html=1;exitX=0.5;exitY=1;exitDx=0;exitDy=0;entryX=0.5;entryY=0;entryDx=0;entryDy=0;" edge="1" parent="1">
          <mxGeometry width="50" height="50" relative="1" as="geometry">
            <mxPoint x="334.5" y="80" as="sourcePoint" />
            <mxPoint x="334.5" y="110" as="targetPoint" />
          </mxGeometry>
        </mxCell>
        <mxCell id="TrRocwraU-rzcqvqFi1y-5" value="" style="endArrow=classic;html=1;entryX=0.5;entryY=0;entryDx=0;entryDy=0;" edge="1" parent="1" target="TrRocwraU-rzcqvqFi1y-6">
          <mxGeometry width="50" height="50" relative="1" as="geometry">
            <mxPoint x="335" y="150" as="sourcePoint" />
            <mxPoint x="334.5" y="190" as="targetPoint" />
            <Array as="points">
              <mxPoint x="335" y="180" />
            </Array>
          </mxGeometry>
        </mxCell>
        <mxCell id="TrRocwraU-rzcqvqFi1y-6" value="" style="rounded=0;whiteSpace=wrap;html=1;fillColor=#080808;" vertex="1" parent="1">
          <mxGeometry x="270" y="180" width="130" height="20" as="geometry" />
        </mxCell>
        <mxCell id="TrRocwraU-rzcqvqFi1y-7" value="&lt;font style=&quot;font-size: 14px&quot;&gt;Number of Stars&lt;/font&gt;" style="rounded=1;whiteSpace=wrap;html=1;" vertex="1" parent="1">
          <mxGeometry x="110" y="290" width="115" height="40" as="geometry" />
        </mxCell>
        <mxCell id="TrRocwraU-rzcqvqFi1y-8" value="&lt;font style=&quot;font-size: 14px&quot;&gt;Leave a comment&lt;/font&gt;" style="rounded=1;whiteSpace=wrap;html=1;" vertex="1" parent="1">
          <mxGeometry x="277.5" y="290" width="115" height="40" as="geometry" />
        </mxCell>
        <mxCell id="TrRocwraU-rzcqvqFi1y-9" value="&lt;font style=&quot;font-size: 14px&quot;&gt;Add Tags&lt;/font&gt;" style="rounded=1;whiteSpace=wrap;html=1;" vertex="1" parent="1">
          <mxGeometry x="440" y="290" width="115" height="40" as="geometry" />
        </mxCell>
        <mxCell id="TrRocwraU-rzcqvqFi1y-10" value="" style="rounded=0;whiteSpace=wrap;html=1;fillColor=#080808;" vertex="1" parent="1">
          <mxGeometry x="270" y="400" width="130" height="20" as="geometry" />
        </mxCell>
        <mxCell id="TrRocwraU-rzcqvqFi1y-11" value="&lt;font style=&quot;font-size: 14px&quot;&gt;Click Next&lt;/font&gt;" style="rounded=1;whiteSpace=wrap;html=1;" vertex="1" parent="1">
          <mxGeometry x="273.13" y="460" width="123.75" height="40" as="geometry" />
        </mxCell>
        <mxCell id="TrRocwraU-rzcqvqFi1y-12" value="&lt;font style=&quot;font-size: 14px&quot;&gt;Enter a tip amount&lt;/font&gt;" style="rounded=1;whiteSpace=wrap;html=1;" vertex="1" parent="1">
          <mxGeometry x="273.13" y="530" width="123.75" height="40" as="geometry" />
        </mxCell>
        <mxCell id="TrRocwraU-rzcqvqFi1y-13" value="&lt;font style=&quot;font-size: 14px&quot;&gt;Select Card&lt;/font&gt;" style="rounded=1;whiteSpace=wrap;html=1;" vertex="1" parent="1">
          <mxGeometry x="277.5" y="670" width="122.5" height="40" as="geometry" />
        </mxCell>
        <mxCell id="TrRocwraU-rzcqvqFi1y-14" value="&lt;font style=&quot;font-size: 14px&quot;&gt;Click &#39;Complete&#39;&lt;/font&gt;" style="rounded=1;whiteSpace=wrap;html=1;" vertex="1" parent="1">
          <mxGeometry x="277.5" y="830" width="122.5" height="40" as="geometry" />
        </mxCell>
        <mxCell id="TrRocwraU-rzcqvqFi1y-15" value="" style="ellipse;whiteSpace=wrap;html=1;aspect=fixed;shadow=0;strokeColor=#363636;fillColor=#080808;" vertex="1" parent="1">
          <mxGeometry x="313.75" y="910" width="50" height="50" as="geometry" />
        </mxCell>
        <mxCell id="TrRocwraU-rzcqvqFi1y-16" value="" style="verticalLabelPosition=bottom;verticalAlign=top;html=1;shape=mxgraph.basic.rounded_frame;dx=10;shadow=1;strokeColor=#363636;fillColor=#FAFAFA;" vertex="1" parent="1">
          <mxGeometry x="313.13" y="910" width="51.25" height="50" as="geometry" />
        </mxCell>
        <mxCell id="TrRocwraU-rzcqvqFi1y-18" value="&lt;font style=&quot;font-size: 14px&quot;&gt;View Tip&lt;/font&gt;" style="rounded=1;whiteSpace=wrap;html=1;" vertex="1" parent="1">
          <mxGeometry x="670" y="830" width="115" height="40" as="geometry" />
        </mxCell>
        <mxCell id="TrRocwraU-rzcqvqFi1y-20" value="" style="rhombus;whiteSpace=wrap;html=1;shadow=1;strokeColor=#363636;fillColor=#99CCFF;" vertex="1" parent="1">
          <mxGeometry x="317.51" y="590" width="35" height="40" as="geometry" />
        </mxCell>
        <mxCell id="TrRocwraU-rzcqvqFi1y-24" value="" style="rhombus;whiteSpace=wrap;html=1;shadow=1;strokeColor=#363636;fillColor=#99CCFF;" vertex="1" parent="1">
          <mxGeometry x="321.25" y="740" width="35" height="40" as="geometry" />
        </mxCell>
        <mxCell id="TrRocwraU-rzcqvqFi1y-27" value="" style="endArrow=classic;html=1;exitX=0.5;exitY=1;exitDx=0;exitDy=0;" edge="1" parent="1" source="TrRocwraU-rzcqvqFi1y-6" target="TrRocwraU-rzcqvqFi1y-8">
          <mxGeometry width="50" height="50" relative="1" as="geometry">
            <mxPoint x="410" y="380" as="sourcePoint" />
            <mxPoint x="460" y="330" as="targetPoint" />
          </mxGeometry>
        </mxCell>
        <mxCell id="TrRocwraU-rzcqvqFi1y-28" value="" style="endArrow=classic;html=1;exitX=0.34;exitY=1.113;exitDx=0;exitDy=0;entryX=0.5;entryY=0;entryDx=0;entryDy=0;exitPerimeter=0;" edge="1" parent="1" source="TrRocwraU-rzcqvqFi1y-6" target="TrRocwraU-rzcqvqFi1y-7">
          <mxGeometry width="50" height="50" relative="1" as="geometry">
            <mxPoint x="410" y="380" as="sourcePoint" />
            <mxPoint x="170" y="220" as="targetPoint" />
            <Array as="points">
              <mxPoint x="315" y="220" />
              <mxPoint x="168" y="220" />
            </Array>
          </mxGeometry>
        </mxCell>
        <mxCell id="TrRocwraU-rzcqvqFi1y-29" value="" style="endArrow=classic;html=1;exitX=0.648;exitY=1.013;exitDx=0;exitDy=0;exitPerimeter=0;" edge="1" parent="1" source="TrRocwraU-rzcqvqFi1y-6" target="TrRocwraU-rzcqvqFi1y-9">
          <mxGeometry width="50" height="50" relative="1" as="geometry">
            <mxPoint x="410" y="380" as="sourcePoint" />
            <mxPoint x="520" y="220" as="targetPoint" />
            <Array as="points">
              <mxPoint x="355" y="220" />
              <mxPoint x="498" y="220" />
            </Array>
          </mxGeometry>
        </mxCell>
        <mxCell id="TrRocwraU-rzcqvqFi1y-35" value="" style="endArrow=classic;html=1;exitX=0.5;exitY=1;exitDx=0;exitDy=0;entryX=0.154;entryY=0;entryDx=0;entryDy=0;entryPerimeter=0;" edge="1" parent="1" source="TrRocwraU-rzcqvqFi1y-7" target="TrRocwraU-rzcqvqFi1y-10">
          <mxGeometry width="50" height="50" relative="1" as="geometry">
            <mxPoint x="410" y="540" as="sourcePoint" />
            <mxPoint x="168" y="460" as="targetPoint" />
            <Array as="points">
              <mxPoint x="168" y="360" />
              <mxPoint x="290" y="360" />
            </Array>
          </mxGeometry>
        </mxCell>
        <mxCell id="TrRocwraU-rzcqvqFi1y-36" value="" style="endArrow=classic;html=1;exitX=0.5;exitY=1;exitDx=0;exitDy=0;" edge="1" parent="1" source="TrRocwraU-rzcqvqFi1y-8">
          <mxGeometry width="50" height="50" relative="1" as="geometry">
            <mxPoint x="410" y="540" as="sourcePoint" />
            <mxPoint x="335" y="400" as="targetPoint" />
          </mxGeometry>
        </mxCell>
        <mxCell id="TrRocwraU-rzcqvqFi1y-37" value="" style="endArrow=classic;html=1;exitX=0.5;exitY=1;exitDx=0;exitDy=0;" edge="1" parent="1" source="TrRocwraU-rzcqvqFi1y-9">
          <mxGeometry width="50" height="50" relative="1" as="geometry">
            <mxPoint x="410" y="540" as="sourcePoint" />
            <mxPoint x="380" y="400" as="targetPoint" />
            <Array as="points">
              <mxPoint x="498" y="360" />
              <mxPoint x="380" y="360" />
            </Array>
          </mxGeometry>
        </mxCell>
        <mxCell id="TrRocwraU-rzcqvqFi1y-38" value="" style="endArrow=classic;html=1;exitX=0.5;exitY=1;exitDx=0;exitDy=0;" edge="1" parent="1" source="TrRocwraU-rzcqvqFi1y-10" target="TrRocwraU-rzcqvqFi1y-11">
          <mxGeometry width="50" height="50" relative="1" as="geometry">
            <mxPoint x="410" y="540" as="sourcePoint" />
            <mxPoint x="460" y="490" as="targetPoint" />
          </mxGeometry>
        </mxCell>
        <mxCell id="TrRocwraU-rzcqvqFi1y-39" value="" style="endArrow=classic;html=1;exitX=0.5;exitY=1;exitDx=0;exitDy=0;" edge="1" parent="1" source="TrRocwraU-rzcqvqFi1y-11" target="TrRocwraU-rzcqvqFi1y-12">
          <mxGeometry width="50" height="50" relative="1" as="geometry">
            <mxPoint x="410" y="540" as="sourcePoint" />
            <mxPoint x="460" y="490" as="targetPoint" />
          </mxGeometry>
        </mxCell>
        <mxCell id="TrRocwraU-rzcqvqFi1y-40" value="" style="endArrow=classic;html=1;exitX=0.5;exitY=1;exitDx=0;exitDy=0;" edge="1" parent="1" source="TrRocwraU-rzcqvqFi1y-12" target="TrRocwraU-rzcqvqFi1y-20">
          <mxGeometry width="50" height="50" relative="1" as="geometry">
            <mxPoint x="410" y="590" as="sourcePoint" />
            <mxPoint x="460" y="540" as="targetPoint" />
          </mxGeometry>
        </mxCell>
        <mxCell id="TrRocwraU-rzcqvqFi1y-41" value="" style="endArrow=classic;html=1;entryX=0;entryY=0.75;entryDx=0;entryDy=0;exitX=0;exitY=0.5;exitDx=0;exitDy=0;" edge="1" parent="1" source="TrRocwraU-rzcqvqFi1y-20" target="TrRocwraU-rzcqvqFi1y-14">
          <mxGeometry width="50" height="50" relative="1" as="geometry">
            <mxPoint x="240" y="620" as="sourcePoint" />
            <mxPoint x="160" y="890" as="targetPoint" />
            <Array as="points">
              <mxPoint x="160" y="610" />
              <mxPoint x="160" y="860" />
            </Array>
          </mxGeometry>
        </mxCell>
        <mxCell id="TrRocwraU-rzcqvqFi1y-42" value="" style="endArrow=classic;html=1;entryX=0.104;entryY=0.013;entryDx=0;entryDy=0;exitX=0;exitY=0.5;exitDx=0;exitDy=0;entryPerimeter=0;" edge="1" parent="1" source="TrRocwraU-rzcqvqFi1y-20" target="TrRocwraU-rzcqvqFi1y-13">
          <mxGeometry width="50" height="50" relative="1" as="geometry">
            <mxPoint x="308" y="610" as="sourcePoint" />
            <mxPoint x="460" y="790" as="targetPoint" />
            <Array as="points">
              <mxPoint x="290" y="610" />
            </Array>
          </mxGeometry>
        </mxCell>
        <mxCell id="TrRocwraU-rzcqvqFi1y-43" value="" style="endArrow=classic;html=1;entryX=0.831;entryY=0.013;entryDx=0;entryDy=0;exitX=1;exitY=0.5;exitDx=0;exitDy=0;entryPerimeter=0;" edge="1" parent="1" source="TrRocwraU-rzcqvqFi1y-20" target="TrRocwraU-rzcqvqFi1y-13">
          <mxGeometry width="50" height="50" relative="1" as="geometry">
            <mxPoint x="369" y="610" as="sourcePoint" />
            <mxPoint x="460" y="790" as="targetPoint" />
            <Array as="points">
              <mxPoint x="379" y="610" />
            </Array>
          </mxGeometry>
        </mxCell>
        <mxCell id="TrRocwraU-rzcqvqFi1y-44" value="" style="endArrow=classic;html=1;exitX=0.5;exitY=1;exitDx=0;exitDy=0;entryX=0.5;entryY=0;entryDx=0;entryDy=0;" edge="1" parent="1" source="TrRocwraU-rzcqvqFi1y-13" target="TrRocwraU-rzcqvqFi1y-24">
          <mxGeometry width="50" height="50" relative="1" as="geometry">
            <mxPoint x="410" y="660" as="sourcePoint" />
            <mxPoint x="460" y="610" as="targetPoint" />
          </mxGeometry>
        </mxCell>
        <mxCell id="TrRocwraU-rzcqvqFi1y-45" value="" style="endArrow=classic;html=1;exitX=1;exitY=0.5;exitDx=0;exitDy=0;" edge="1" parent="1" source="TrRocwraU-rzcqvqFi1y-24">
          <mxGeometry width="50" height="50" relative="1" as="geometry">
            <mxPoint x="410" y="860" as="sourcePoint" />
            <mxPoint x="390" y="830" as="targetPoint" />
            <Array as="points">
              <mxPoint x="390" y="760" />
            </Array>
          </mxGeometry>
        </mxCell>
        <mxCell id="TrRocwraU-rzcqvqFi1y-46" value="" style="endArrow=classic;html=1;exitX=0;exitY=0.5;exitDx=0;exitDy=0;entryX=0.092;entryY=0.007;entryDx=0;entryDy=0;entryPerimeter=0;" edge="1" parent="1" source="TrRocwraU-rzcqvqFi1y-24" target="TrRocwraU-rzcqvqFi1y-14">
          <mxGeometry width="50" height="50" relative="1" as="geometry">
            <mxPoint x="410" y="760" as="sourcePoint" />
            <mxPoint x="260" y="760" as="targetPoint" />
            <Array as="points">
              <mxPoint x="290" y="760" />
            </Array>
          </mxGeometry>
        </mxCell>
        <mxCell id="TrRocwraU-rzcqvqFi1y-47" value="" style="endArrow=classic;html=1;exitX=0.5;exitY=1;exitDx=0;exitDy=0;entryX=0.5;entryY=0;entryDx=0;entryDy=0;entryPerimeter=0;" edge="1" parent="1" source="TrRocwraU-rzcqvqFi1y-14" target="TrRocwraU-rzcqvqFi1y-16">
          <mxGeometry width="50" height="50" relative="1" as="geometry">
            <mxPoint x="410" y="830" as="sourcePoint" />
            <mxPoint x="601.25" y="910" as="targetPoint" />
          </mxGeometry>
        </mxCell>
        <mxCell id="TrRocwraU-rzcqvqFi1y-49" value="" style="endArrow=classic;html=1;exitX=1;exitY=0.5;exitDx=0;exitDy=0;" edge="1" parent="1" source="TrRocwraU-rzcqvqFi1y-14" target="TrRocwraU-rzcqvqFi1y-18">
          <mxGeometry width="50" height="50" relative="1" as="geometry">
            <mxPoint x="410" y="610" as="sourcePoint" />
            <mxPoint x="460" y="560" as="targetPoint" />
          </mxGeometry>
        </mxCell>
        <mxCell id="TrRocwraU-rzcqvqFi1y-50" value="" style="endArrow=none;dashed=1;html=1;" edge="1" parent="1">
          <mxGeometry width="50" height="50" relative="1" as="geometry">
            <mxPoint x="600" y="950" as="sourcePoint" />
            <mxPoint x="600" y="10" as="targetPoint" />
          </mxGeometry>
        </mxCell>
        <mxCell id="TrRocwraU-rzcqvqFi1y-51" value="" style="endArrow=none;html=1;" edge="1" parent="1">
          <mxGeometry width="50" height="50" relative="1" as="geometry">
            <mxPoint x="50" y="40" as="sourcePoint" />
            <mxPoint x="792.5" y="40" as="targetPoint" />
          </mxGeometry>
        </mxCell>
        <mxCell id="TrRocwraU-rzcqvqFi1y-52" value="&lt;font style=&quot;font-size: 18px&quot;&gt;&lt;b&gt;User: Requestor&lt;/b&gt;&lt;/font&gt;" style="text;html=1;strokeColor=none;fillColor=none;align=center;verticalAlign=middle;whiteSpace=wrap;rounded=0;shadow=1;" vertex="1" parent="1">
          <mxGeometry x="240" y="10" width="180" height="40" as="geometry" />
        </mxCell>
        <mxCell id="TrRocwraU-rzcqvqFi1y-53" value="&lt;b style=&quot;color: rgb(0 , 0 , 0) ; font-family: &amp;#34;helvetica&amp;#34; ; font-style: normal ; letter-spacing: normal ; text-align: center ; text-indent: 0px ; text-transform: none ; word-spacing: 0px ; background-color: rgb(248 , 249 , 250)&quot;&gt;&lt;font style=&quot;font-size: 18px&quot;&gt;User: Offeror&lt;/font&gt;&lt;/b&gt;" style="text;whiteSpace=wrap;html=1;" vertex="1" parent="1">
          <mxGeometry x="640" y="10" width="130" height="30" as="geometry" />
        </mxCell>
        <mxCell id="TrRocwraU-rzcqvqFi1y-56" value="&lt;font style=&quot;font-size: 14px&quot;&gt;No Tip Given&lt;/font&gt;" style="text;html=1;strokeColor=none;fillColor=none;align=center;verticalAlign=middle;whiteSpace=wrap;rounded=0;" vertex="1" parent="1">
          <mxGeometry x="192.5" y="580" width="90" height="30" as="geometry" />
        </mxCell>
        <mxCell id="TrRocwraU-rzcqvqFi1y-57" value="&lt;font style=&quot;font-size: 14px&quot;&gt;Default Card&lt;/font&gt;" style="text;html=1;strokeColor=none;fillColor=none;align=center;verticalAlign=middle;whiteSpace=wrap;rounded=0;" vertex="1" parent="1">
          <mxGeometry x="396.88" y="770" width="90" height="30" as="geometry" />
        </mxCell>
        <mxCell id="TrRocwraU-rzcqvqFi1y-58" value="&lt;font style=&quot;font-size: 14px&quot;&gt;Tip Amount: Custom&lt;/font&gt;" style="text;html=1;strokeColor=none;fillColor=none;align=center;verticalAlign=middle;whiteSpace=wrap;rounded=0;" vertex="1" parent="1">
          <mxGeometry x="200" y="630" width="90" height="30" as="geometry" />
        </mxCell>
        <mxCell id="TrRocwraU-rzcqvqFi1y-60" value="&lt;font style=&quot;font-size: 14px&quot;&gt;Tip Amount: Preset List&lt;/font&gt;" style="text;html=1;strokeColor=none;fillColor=none;align=center;verticalAlign=middle;whiteSpace=wrap;rounded=0;" vertex="1" parent="1">
          <mxGeometry x="380" y="620" width="90" height="30" as="geometry" />
        </mxCell>
        <mxCell id="TrRocwraU-rzcqvqFi1y-61" value="&lt;font style=&quot;font-size: 14px&quot;&gt;Other Card&lt;/font&gt;" style="text;html=1;strokeColor=none;fillColor=none;align=center;verticalAlign=middle;whiteSpace=wrap;rounded=0;" vertex="1" parent="1">
          <mxGeometry x="200" y="770" width="90" height="30" as="geometry" />
        </mxCell>
      </root>
    </mxGraphModel>
  </diagram>
</mxfile>
